<?xml version="1.0" standalone="no"?>
<!DOCTYPE svg PUBLIC "-//W3C//DTD SVG 20010904//EN"
 "http://www.w3.org/TR/2001/REC-SVG-20010904/DTD/svg10.dtd">
<svg version="1.0" xmlns="http://www.w3.org/2000/svg"
 width="926.000000pt" height="743.000000pt" viewBox="0 0 926.000000 743.000000"
 preserveAspectRatio="xMidYMid meet">

<g transform="translate(0.000000,743.000000) scale(0.100000,-0.100000)"
fill="#22254C" stroke="none">
<path d="M3350 6450 c-236 -44 -383 -215 -448 -520 -64 -297 -102 -800 -102
-1346 0 -215 3 -273 13 -277 15 -6 222 171 886 756 553 487 881 770 887 764
17 -17 -337 -781 -484 -1042 -204 -363 -397 -608 -528 -670 -57 -27 -58 -27
-209 -20 -150 7 -152 7 -206 -19 -54 -26 -326 -245 -336 -272 -6 -17 12 -244
33 -409 20 -163 57 -336 88 -419 71 -189 205 -317 372 -357 68 -16 235 -13
324 6 450 95 1684 746 2335 1232 271 203 413 352 475 501 108 257 -17 499
-413 801 l-98 74 -37 -35 c-20 -19 -314 -294 -652 -610 -338 -316 -623 -584
-632 -594 -16 -18 -16 -24 -2 -69 23 -74 14 -212 -18 -293 -52 -127 -87 -171
-353 -440 -143 -145 -272 -270 -287 -278 -74 -39 -158 6 -158 84 0 54 23 82
259 317 164 163 201 205 201 227 0 33 -32 68 -62 68 -15 0 -92 -70 -247 -224
-124 -124 -239 -230 -256 -236 -58 -22 -122 9 -140 68 -17 56 1 80 236 318
157 158 229 238 229 252 0 30 -35 62 -68 62 -22 0 -64 -37 -227 -201 -110
-111 -218 -214 -239 -230 -54 -40 -107 -40 -147 0 -40 40 -40 93 0 147 49 67
503 508 564 547 153 101 307 131 445 88 l60 -18 592 640 c483 523 589 642 578
653 -22 21 -388 240 -597 356 -549 306 -1054 535 -1316 599 -92 22 -250 32
-315 19z"/>
<path d="M2767 2216 c-50 -18 -103 -60 -133 -106 -34 -51 -39 -102 -39 -380 0
-251 3 -264 69 -338 104 -115 295 -105 387 20 48 67 51 91 47 378 -3 297 -3
296 -80 370 -64 63 -167 85 -251 56z m119 -151 c58 -24 64 -53 64 -295 0 -236
-6 -267 -60 -295 -39 -20 -79 -13 -111 21 -24 25 -24 29 -27 262 -3 263 0 275
58 304 42 21 33 21 76 3z"/>
<path d="M3370 2219 c-35 -11 -93 -50 -118 -79 -7 -8 -24 -37 -37 -65 -24 -49
-25 -56 -25 -301 0 -287 5 -313 72 -382 53 -55 87 -72 154 -79 73 -8 135 12
190 60 86 75 89 87 92 370 3 204 0 257 -13 303 -18 64 -69 126 -129 156 -46
24 -136 32 -186 17z m145 -181 l25 -30 0 -239 0 -239 -29 -32 c-33 -37 -82
-43 -124 -15 -42 27 -49 77 -45 311 3 235 9 258 72 274 45 12 73 4 101 -30z"/>
<path d="M6870 2221 c-118 -38 -183 -129 -183 -251 0 -126 45 -185 219 -284
84 -47 111 -68 120 -91 16 -44 0 -91 -39 -116 -67 -41 -138 3 -147 93 l-5 53
-75 0 -75 0 -3 -38 c-2 -21 4 -63 13 -95 22 -74 97 -152 168 -171 102 -29 218
9 277 90 41 57 53 102 47 175 -8 100 -46 143 -202 228 -56 30 -109 64 -119 75
-11 12 -21 42 -24 69 -4 41 0 52 23 80 23 27 33 32 71 32 65 0 94 -31 94 -102
0 -96 2 -98 86 -98 l74 0 0 71 c0 40 -5 89 -12 111 -15 50 -79 123 -131 150
-44 22 -137 32 -177 19z"/>
<path d="M2110 1770 l0 -450 75 0 75 0 2 193 3 192 90 2 c50 1 112 2 138 3
l48 0 -3 73 -3 72 -135 5 -135 5 0 100 0 100 138 3 137 3 0 74 0 75 -215 0
-215 0 0 -450z"/>
<path d="M3800 1770 l0 -450 153 0 c145 0 156 1 205 26 29 14 68 44 87 67 60
69 67 113 63 384 -3 265 -7 280 -80 350 -64 62 -105 73 -275 73 l-153 0 0
-450z m320 265 l30 -29 0 -231 c0 -252 -2 -260 -60 -290 -16 -8 -52 -15 -80
-15 l-50 0 0 301 0 301 65 -4 c55 -3 69 -8 95 -33z"/>
<path d="M4560 2145 l0 -75 85 0 85 0 0 -375 0 -375 80 0 80 0 0 375 0 375 85
0 85 0 0 75 0 75 -250 0 -250 0 0 -75z"/>
<path d="M5195 2198 c-4 -19 -130 -721 -152 -845 l-5 -33 75 0 76 0 6 38 c11
64 8 62 100 62 92 0 89 2 100 -62 l6 -38 74 0 c50 0 75 4 75 12 0 6 -34 206
-75 443 -41 238 -75 435 -75 439 0 3 -45 6 -100 6 -95 0 -100 -1 -105 -22z
m136 -451 c14 -100 25 -183 24 -185 -1 -2 -29 -2 -62 0 l-59 3 30 187 c16 103
32 185 35 183 2 -3 17 -87 32 -188z"/>
<path d="M5640 1770 l0 -450 215 0 215 0 0 75 0 75 -140 0 -140 0 0 375 0 375
-75 0 -75 0 0 -450z"/>
<path d="M6156 1780 c-4 -242 -5 -444 -1 -450 3 -5 40 -10 81 -10 l74 0 0 153
c0 135 2 156 20 185 11 18 24 31 28 28 5 -3 46 -86 92 -185 l84 -181 83 0 c46
0 83 2 83 4 0 7 -51 117 -144 310 -53 109 -96 206 -96 215 0 9 49 95 109 191
l108 175 -70 3 c-39 2 -75 1 -81 -1 -7 -3 -53 -70 -104 -151 -51 -80 -97 -148
-103 -151 -5 -4 -9 55 -9 149 l0 156 -73 0 -74 0 -7 -440z"/>
</g>
</svg>
